<?xml version="1.0" standalone="no"?>
<!DOCTYPE svg PUBLIC "-//W3C//DTD SVG 20010904//EN"
 "http://www.w3.org/TR/2001/REC-SVG-20010904/DTD/svg10.dtd">
<svg version="1.0" xmlns="http://www.w3.org/2000/svg"
 width="626.000000pt" height="418.000000pt" viewBox="0 0 626.000000 418.000000"
 preserveAspectRatio="xMidYMid meet">
<metadata>
Created by potrace 1.16, written by Peter Selinger 2001-2019
</metadata>
<g transform="translate(0.000000,418.000000) scale(0.100000,-0.100000)"
fill="#000000" stroke="none">
<path d="M6140 4020 c-42 -12 -128 -60 -134 -76 -3 -9 -10 -12 -16 -9 -5 3
-10 2 -10 -4 0 -6 -11 -13 -25 -17 -14 -3 -25 -10 -25 -15 0 -5 -5 -9 -11 -9
-5 0 -39 -20 -75 -45 -35 -25 -66 -45 -70 -45 -8 0 -78 -53 -82 -62 -2 -5 -8
-8 -13 -8 -6 0 -24 -10 -40 -22 -24 -18 -45 -23 -98 -24 -55 0 -77 -6 -115
-28 -25 -15 -55 -37 -66 -48 -11 -13 -20 -16 -20 -9 0 8 -11 11 -32 9 -29 -2
-33 0 -30 20 2 23 1 23 -21 -5 -67 -81 -178 -253 -164 -253 2 0 17 18 32 40
26 38 55 53 55 29 0 -5 4 -8 9 -5 5 3 15 -7 22 -22 26 -50 74 -111 99 -124 14
-7 27 -15 30 -18 3 -3 28 -13 55 -23 54 -19 125 -22 153 -8 9 5 38 17 64 26
106 37 165 165 127 275 -11 30 -10 34 17 55 16 13 31 21 34 18 3 -3 -1 -8 -7
-10 -7 -3 -13 -10 -13 -16 1 -7 14 3 30 22 16 19 26 39 23 44 -3 6 -1 7 5 3 9
-5 9 -13 0 -29 -9 -19 -9 -20 3 -11 8 6 24 10 36 9 12 -1 20 2 17 7 -3 5 0 15
6 23 15 18 101 20 118 3 8 -8 12 -46 12 -104 0 -95 11 -124 46 -124 8 0 14 -7
14 -16 0 -8 4 -13 9 -10 25 16 11 -26 -41 -129 -65 -128 -113 -244 -122 -295
-3 -19 -3 -29 0 -22 3 6 9 12 13 12 9 0 1 -132 -10 -145 -5 -7 0 -23 11 -40
10 -16 17 -32 15 -36 -3 -3 18 -27 45 -52 51 -47 57 -68 11 -39 -22 14 -20 9
12 -26 21 -24 37 -52 37 -66 0 -17 6 -25 18 -24 9 0 54 -2 100 -6 l82 -5 0 64
c0 63 0 64 -32 74 -18 6 -46 12 -63 14 -16 2 -45 12 -64 21 -18 10 -31 14 -28
9 4 -5 24 -18 47 -28 22 -10 40 -24 40 -32 0 -17 -14 -17 -53 3 -62 32 -106
75 -133 130 -48 99 -26 212 86 436 29 57 61 118 73 137 11 19 15 31 8 26 -9
-5 -12 -3 -9 6 3 8 10 14 15 14 6 0 15 4 20 9 5 5 2 6 -6 1 -9 -5 -12 -3 -9 6
3 8 10 14 15 14 6 0 15 4 20 9 5 5 2 6 -6 1 -9 -5 -12 -3 -9 6 3 8 10 14 15
14 6 0 15 4 20 9 5 5 3 6 -4 2 -21 -12 -15 4 22 55 l35 49 0 223 0 222 -48 1
c-26 0 -58 -2 -72 -6z m-600 -415 c6 -15 6 -45 1 -77 -5 -29 -9 -60 -9 -68 0
-8 -3 -23 -7 -33 -6 -13 1 -20 30 -33 43 -18 82 -16 110 6 20 15 20 15 1 -8
-11 -12 -21 -20 -23 -18 -2 2 -17 -9 -33 -25 -23 -24 -35 -29 -63 -25 -19 2
-44 9 -55 15 -11 6 -22 7 -26 4 -5 -6 -10 11 -8 28 1 4 -11 12 -27 19 -32 13
-51 47 -51 91 0 96 132 198 160 124z"/>
<path d="M6228 3454 c-24 -35 -27 -44 -18 -74 13 -46 12 -50 -4 -20 -8 14 -12
29 -9 35 11 23 -38 -43 -56 -76 -16 -27 -17 -36 -7 -36 8 0 12 6 9 13 -2 6 0
15 5 18 5 3 8 -6 6 -20 -1 -15 2 -32 7 -38 5 -6 28 -36 52 -66 l42 -54 3 92
c1 51 1 132 0 179 l-3 86 -27 -39z"/>
<path d="M0 3198 l0 -113 77 -77 c70 -70 78 -75 90 -60 11 12 16 14 19 5 3 -7
10 -13 15 -13 5 0 9 6 9 13 0 6 14 13 31 14 28 2 63 -29 372 -327 187 -181
342 -328 344 -326 3 2 -37 44 -89 93 -318 302 -588 566 -588 574 0 5 5 9 11 9
12 0 689 -649 689 -661 0 -4 -5 -11 -10 -14 -6 -3 -17 -19 -25 -35 -13 -25
-13 -28 0 -26 20 3 32 16 38 41 4 16 5 15 6 -6 1 -17 -11 -36 -36 -60 -22 -21
-34 -27 -30 -16 4 11 3 16 -3 12 -6 -3 -10 -11 -10 -18 0 -6 -12 -25 -27 -41
l-28 -31 27 24 27 24 143 -138 c79 -76 143 -142 143 -146 0 -11 -174 -201
-349 -379 -83 -85 -174 -180 -201 -210 -27 -30 -150 -161 -274 -290 -124 -129
-258 -269 -298 -311 -66 -68 -73 -79 -73 -115 l1 -39 31 35 c17 19 73 80 123
135 51 55 109 120 130 145 32 39 99 111 315 340 25 26 69 74 99 106 122 134
283 306 401 429 222 230 260 271 259 281 0 5 -41 45 -90 89 -50 44 -179 168
-287 275 -108 107 -201 194 -205 192 -5 -1 -6 2 -2 8 3 5 -4 14 -17 19 -13 5
-32 19 -43 32 l-20 24 25 -20 c22 -17 23 -18 10 -1 -8 10 -24 22 -37 27 -13 5
-23 16 -23 25 0 10 -2 15 -5 12 -3 -3 -29 16 -56 43 -28 27 -55 49 -61 49 -5
0 -6 5 -3 10 3 6 1 10 -6 10 -7 0 -9 3 -6 7 4 3 -8 17 -25 30 -18 12 -28 23
-24 23 5 0 -7 11 -27 24 -44 30 -137 115 -280 257 -85 85 -109 104 -116 91
-14 -25 -41 -7 -41 28 0 16 -4 30 -10 30 -6 0 -10 -44 -10 -112z"/>
<path d="M5046 2629 c-33 -39 -32 -46 4 -88 17 -18 30 -31 30 -27 0 4 11 -5
25 -20 14 -15 25 -24 25 -21 0 3 12 -5 28 -18 107 -91 161 -135 167 -135 3 0
34 -23 68 -51 34 -28 69 -56 77 -62 8 -7 35 -28 60 -47 25 -19 51 -40 58 -47
18 -18 53 -36 58 -30 5 4 -467 381 -557 445 -50 34 -58 64 -30 103 28 38 20
37 -13 -2z"/>
<path d="M5253 1728 c-32 -35 -37 -98 -13 -165 11 -32 20 -68 20 -81 0 -28 17
-93 35 -137 18 -44 41 -112 61 -180 9 -33 27 -82 39 -110 12 -27 30 -75 40
-105 10 -30 35 -91 56 -135 21 -44 50 -111 66 -150 59 -143 79 -169 126 -162
21 4 22 10 9 45 -6 15 -42 151 -81 302 -39 151 -80 309 -91 350 -11 41 -37
139 -57 218 -21 78 -40 135 -43 126 -5 -13 -8 -10 -18 11 -7 14 -12 33 -12 41
0 9 -5 12 -12 8 -7 -5 -9 -2 -5 9 3 9 1 43 -5 76 l-12 61 -41 0 c-30 0 -47 -6
-62 -22z"/>
<path d="M1096 1262 c69 -105 94 -165 74 -177 -5 -3 -10 -15 -10 -25 0 -24
-37 -50 -71 -50 -17 0 -86 -43 -210 -131 -234 -167 -261 -188 -253 -201 4 -6
24 -8 45 -5 22 3 37 1 34 -3 -7 -11 33 -4 49 9 6 5 34 12 61 16 72 10 155 37
155 50 0 7 17 28 38 48 54 53 74 77 106 124 31 47 78 86 128 108 18 8 27 14
21 15 -9 0 -10 7 -3 26 18 47 11 71 -35 118 -28 29 -45 56 -45 71 0 26 -15 41
-25 25 -4 -6 -11 -7 -17 -4 -6 4 -22 8 -35 10 -24 2 -24 2 -7 -24z"/>
<path d="M1262 886 c-51 -59 -50 -141 3 -208 40 -50 108 -64 154 -31 20 14 22
18 9 27 -36 26 -48 88 -28 140 5 14 16 26 25 26 8 0 15 7 15 16 0 33 -52 64
-108 64 -33 0 -45 -6 -70 -34z"/>
<path d="M1620 891 c0 -11 3 -21 8 -21 9 0 -1 -129 -13 -175 -11 -39 -67 -98
-138 -145 -32 -21 -54 -41 -49 -44 6 -3 13 0 16 6 4 9 8 10 11 2 4 -8 28 -10
73 -7 96 7 160 43 211 118 56 83 50 164 -17 220 -43 35 -55 37 -64 10 -5 -17
-6 -16 -7 6 -1 34 -31 63 -31 30z"/>
<path d="M720 493 c-26 -12 -31 -17 -17 -20 9 -3 17 -9 17 -14 0 -5 8 -9 19
-9 23 0 26 -45 5 -75 -8 -11 -14 -27 -14 -37 0 -9 -5 -20 -11 -24 -8 -5 -10 3
-7 27 3 19 2 42 -3 51 -6 11 -5 19 3 24 6 4 8 3 5 -2 -3 -6 -2 -16 2 -23 6 -9
10 -7 14 8 3 14 -1 22 -14 26 -10 3 -28 8 -39 11 -14 4 -20 1 -20 -11 0 -13
-6 -16 -26 -11 -17 5 -23 3 -19 -4 3 -5 -1 -10 -10 -10 -9 0 -13 5 -9 11 4 8
0 8 -15 0 -11 -7 -21 -14 -21 -17 0 -3 5 -2 10 1 6 3 10 2 10 -3 0 -6 -15 -15
-32 -21 -31 -10 -32 -10 -13 5 18 15 18 16 2 10 -10 -3 -23 -6 -28 -6 -6 0 -7
-5 -3 -12 5 -8 2 -9 -10 -5 -10 4 -15 3 -11 -3 6 -10 -25 -30 -47 -30 -9 0 -9
3 2 10 13 8 13 10 -2 10 -9 0 -19 -8 -22 -18 -3 -10 -16 -18 -28 -19 -11 -1
-25 -8 -29 -15 -5 -8 -9 -9 -9 -2 0 7 -11 9 -25 6 -14 -2 -25 -9 -25 -14 0 -6
7 -8 15 -4 8 3 15 1 15 -4 0 -5 -20 -8 -45 -5 -27 2 -43 0 -40 -6 4 -5 0 -9
-7 -9 -7 0 -19 -9 -26 -20 -14 -22 -10 -63 13 -140 7 -25 16 -57 19 -72 l6
-28 485 0 c478 0 485 0 485 20 0 11 4 20 9 20 5 0 11 28 14 62 2 35 10 83 16
107 12 46 1 101 -21 101 -5 0 -12 8 -15 17 -10 26 -105 123 -120 123 -8 0 -26
9 -42 20 -52 39 -274 54 -341 23z"/>
<path d="M5960 465 c-7 -8 -17 -15 -22 -15 -56 0 -186 -124 -204 -195 -4 -16
-13 -40 -20 -54 -16 -31 -18 -111 -3 -163 l10 -38 131 0 132 0 -25 27 c-94
103 -89 211 14 371 25 39 43 73 40 76 -11 11 -40 6 -53 -9z"/>
</g>
</svg>
